inDegrees=no
num_controls=7
num_derivatives=13
num_iterations=92
num_multipliers=7
num_parameters=0
num_slacks=7
num_states=26
objective=0.453156
objective_accelerations=0.020076
objective_balance=0.001683
objective_effort=0.015057
objective_height=0.411162
objective_ligament=0.005178
solver_duration=1446.909419
status=Solve_Succeeded
success=true
DataType=double
version=3
OpenSimVersion=4.5
endheader
time	/jointset/ground_pelvis/pelvis_tilt/value	/jointset/ground_pelvis/pelvis_tx/value	/jointset/ground_pelvis/pelvis_ty/value	/jointset/hip_l/hip_flexion_l/value	/jointset/hip_l/hip_adduction_l/value	/jointset/hip_l/hip_rotation_l/value	/jointset/back/lumbar_extension/value	/jointset/patellofemoral_l/patellar_flexion_l/value	/jointset/knee_l/knee_flexion_l/value	/jointset/knee_l/knee_adduction_l/value	/jointset/knee_l/knee_rotation_l/value	/jointset/ankle_l/ankle_angle_l/value	/jointset/subtalar_l/subtalar_angle_l/value	/jointset/ground_pelvis/pelvis_tilt/speed	/jointset/ground_pelvis/pelvis_tx/speed	/jointset/ground_pelvis/pelvis_ty/speed	/jointset/hip_l/hip_flexion_l/speed	/jointset/hip_l/hip_adduction_l/speed	/jointset/hip_l/hip_rotation_l/speed	/jointset/back/lumbar_extension/speed	/jointset/patellofemoral_l/patellar_flexion_l/speed	/jointset/knee_l/knee_flexion_l/speed	/jointset/knee_l/knee_adduction_l/speed	/jointset/knee_l/knee_rotation_l/speed	/jointset/ankle_l/ankle_angle_l/speed	/jointset/subtalar_l/subtalar_angle_l/speed	/forceset/tau_hip_flexion_l	/forceset/tau_hip_adduction_l	/forceset/tau_hip_rotation_l	/forceset/tau_knee_flexion_l	/forceset/tau_ankle_angle_l	/forceset/tau_subtalar_angle_l	/forceset/tau_lumbar_extension	lambda_cid13_p0	lambda_cid13_p1	lambda_cid13_p2	lambda_cid13_p3	lambda_cid13_p4	lambda_cid13_p5	lambda_cid14_p0	/jointset/ground_pelvis/pelvis_tilt/accel	/jointset/ground_pelvis/pelvis_tx/accel	/jointset/ground_pelvis/pelvis_ty/accel	/jointset/hip_l/hip_flexion_l/accel	/jointset/hip_l/hip_adduction_l/accel	/jointset/hip_l/hip_rotation_l/accel	/jointset/back/lumbar_extension/accel	/jointset/patellofemoral_l/patellar_flexion_l/accel	/jointset/knee_l/knee_flexion_l/accel	/jointset/knee_l/knee_adduction_l/accel	/jointset/knee_l/knee_rotation_l/accel	/jointset/ankle_l/ankle_angle_l/accel	/jointset/subtalar_l/subtalar_angle_l/accel	gamma_cid13_p0	gamma_cid13_p1	gamma_cid13_p2	gamma_cid13_p3	gamma_cid13_p4	gamma_cid13_p5	gamma_cid14_p0
1	0.02239949979469918	0.1085027458142828	0.7712809698167373	0.5934925340077977	-0.4976666409129558	-0.1639124877255656	-0.26059987683778	0.9934911349543964	0.9934911349543457	-0.1741724879838283	-0.1744855882883665	0.43627656641065	0.0977777147845416	-0.03905378374191393	0.01368301672078249	0.0002972299701616238	0.01447255177186929	-0.0007308450540690302	-0.009435957202729066	0.04103767811557855	-0.01120368741280366	-0.01120368741280399	0.0006329230187539987	-0.000103228239643017	0.01101059212422541	0.00809925688010067	0.003495155881979837	0.03502935510642545	-0.01803160505362687	-0.3818727832417054	-0.008821710288414386	0.009714866551622164	0.05939224533791353	-39.36914716796895	1.007213701748248	1.407474225112197	-1.781449041852218	-580.9542903924521	-72.92707483476939	-17.07624930279251	-0.06871590215479836	0.2423015105822602	0.6917151599395724	-2.223682985688176	0.3388736208010129	-1.483427145091952	0.801061756438024	-3.05362406139701	-3.05362406139719	0.01237073901320448	0.002417760260596536	-1.099133688371214	-0.308678974344807	-1.408598897607427e-09	1.360237037339016e-08	-6.587730911788483e-10	7.742580442740405e-09	1.092316982654832e-09	2.370498149252398e-08	-1.525635414333273e-09
1.01	0.02200469835591447	0.1086517619682693	0.7713184103702249	0.5935271090878687	-0.4976569318762565	-0.1640818450170159	-0.2601483404228289	0.9932267896816354	0.9932267896817046	-0.1741645594246828	-0.1744869045584835	0.4363319095531205	0.09784356963593663	-0.03993685529538421	0.01612988413383175	0.007188395409050114	-0.007539837200289844	0.002670938072690802	-0.02443770605455127	0.04932743011218344	-0.04166878706736747	-0.04166878706736994	0.000947345300886376	-0.0001637517461991382	6.533438507949358e-05	0.005074496574762543	0.003439928190632819	0.03506227130243576	-0.01803873937541814	-0.3817646813261812	-0.008783478462578397	0.00970148461797927	0.0594248768511432	-39.35108093425973	1.008260417851903	1.409137150753861	-1.919441118744149	-580.9344003142038	-72.89023504250947	-17.08804490692886	-0.102655646066273	0.2473310726523177	0.6874433598874591	-2.187362396612582	0.3405721569393883	-1.5088805001481	0.8516057069817645	-3.043465563816447	-3.043465563816603	0.04016226132173085	-0.01084375907528138	-1.091127074814361	-0.2989597470594498	-2.79772017250673e-09	9.643384459294147e-09	9.986724627863369e-09	6.054134297600028e-09	-5.326358324542814e-09	9.006666074958831e-09	-1.712881391998411e-09
1.02	0.02160015562876909	0.1088255371395838	0.7714246878029054	0.5933420911694827	-0.4976132567086225	-0.1644012861459684	-0.2596121717307738	0.9926576908830687	0.9926576908832451	-0.1741536497850112	-0.1744889373342572	0.4362780190666236	0.0978792598465922	-0.04100204141377362	0.01863482018637429	0.01406460580880843	-0.02944604791775851	0.006062381132493186	-0.039452724703205	0.05796413353718412	-0.07215439257514782	-0.07215439257515163	0.001229139123355956	-0.0002465293712176198	-0.01083613367919088	0.002066328732178041	0.003384700499189319	0.03509518749843155	-0.01804587369721368	-0.3816565794106814	-0.008745246636752073	0.009688102684304001	0.059457508364296	-39.33933643894078	1.007710988658823	1.414141722910473	-2.065933717690662	-581.0251183879508	-72.86107325528208	-17.1134750111549	-0.105138815138614	0.2539152384809066	0.6887241521135371	-2.202447334750081	0.3368056074095269	-1.486081104458246	0.8704520421171894	-3.057725232040317	-3.057725232040341	0.005845047080643349	-0.002033063431866103	-1.090375753396117	-0.3053604817940846	-3.92515375356405e-09	6.553075455742709e-09	2.00786028998914e-08	4.453944378699034e-09	-1.147696428470367e-08	-4.889434289528502e-09	-1.7738041803975e-09
1.03	0.02118397112947943	0.1090241287515377	0.771599808208789	0.5929389750716585	-0.4975354748309079	-0.1648709713768386	-0.2589887284101608	0.9917827855577744	0.9917827855577697	-0.1741401776427694	-0.1744917810539066	0.436114135339756	0.09788437507376906	-0.04227434143211756	0.02104078357081823	0.02097256991743495	-0.05111518339559653	0.009516519386671451	-0.05449225599325806	0.06670076920118444	-0.1029152346682198	-0.1029152346682152	0.001452249799175742	-0.0003154302704911206	-0.02205358897717244	-0.00109873460632605	0.00307619568383171	0.03613205653959756	-0.01799620420430281	-0.3803825047751911	-0.01106854196442685	0.009651815144724791	0.05953647648758977	-40.12922655438219	1.179302297325108	1.366764821112121	-1.147538415330582	-581.4526397156375	-72.67727404659324	-17.15263469866609	-0.1441985173242488	0.22752965470303	0.6937931604272061	-2.139849159593095	0.3530909873279594	-1.514081689037249	0.8717051209273406	-3.098547658503048	-3.098547658501705	0.02858969107825803	-0.008295455332043169	-1.154377007487243	-0.330401050515781	-5.049917052031143e-09	3.471630502298875e-09	3.016483199388868e-08	2.854655033535177e-09	-1.762483484336414e-08	-1.877734878612728e-08	-1.833437956661221e-09
1.04	0.02075387904557692	0.1092454985505917	0.7718444003797966	0.5923210271179979	-0.4974224769600686	-0.1654912904301623	-0.258278631574432	0.9905976150194356	0.9905976150192506	-0.1741248652711186	-0.1744951091529882	0.4358346877420147	0.09785617530943357	-0.04378355833613434	0.02319045760638784	0.02795895883358476	-0.07241241908512877	0.01310557975709014	-0.06957948919364891	0.07529483656061423	-0.1342074351837887	-0.1342074351837753	0.00159718500481891	-0.0003434052560423242	-0.03394890785467719	-0.004596669570318902	0.002767690868474755	0.03716892558076718	-0.01794653471135576	-0.3791084301397076	-0.01339183729210401	0.009615527605149051	0.05961544461088318	-40.92570092008159	1.349165377910942	1.322953986617495	-0.2364314795373541	-581.9945227307661	-72.50169406951949	-17.20571152358363	-0.1525221922731976	0.2026573687060692	0.7044091136181901	-2.128067377088946	0.3637900306576025	-1.4956214865258	0.841938381203084	-3.163996916539676	-3.163996916539647	-0.009790046954693059	0.006152119312592545	-1.225948469300709	-0.3719348068918161	-6.317111087932765e-09	7.488481113329174e-09	3.927465945246731e-08	4.830323270815157e-09	-1.986673138380732e-08	-1.701349117306786e-08	-3.168470050040381e-09
1.05	0.0203076684406599	0.1094872078557147	0.772159150378631	0.5914918627433726	-0.4972729937547783	-0.1662626691545494	-0.2574832550746867	0.9890972879985637	0.989097287998604	-0.1741084463022261	-0.1744986081543326	0.4354332829914531	0.09779152212639466	-0.04548480737623759	0.02512079421370387	0.03499416153306996	-0.09336548331442848	0.01680616004669418	-0.08470071154548059	0.08376398689207744	-0.1659043222002749	-0.1659043222002773	0.001680833790929342	-0.0003591860773065905	-0.04640702638456298	-0.008369695153371529	0.002551381317720896	0.03794306902859214	-0.01790793541429838	-0.3777425439034308	-0.01520679564042264	0.009575882825099465	0.05960948351881185	-41.52657285310274	1.476236499948104	1.297389771460392	0.4317754669444827	-582.0959528097223	-72.32199683006397	-17.27293735360438	-0.1828638296339579	0.1836318307869771	0.7035395193403796	-2.070681311849425	0.3754484153868473	-1.521045218098191	0.8469318846457783	-3.179486653025362	-3.179486653027702	0.01657854340317707	-0.005852360782952192	-1.266990954427094	-0.3853532500404258	-7.588756084379215e-09	1.172715346074925e-08	4.835397435993911e-08	6.917708932546488e-09	-2.198656623618123e-08	-1.476051568158171e-08	-4.543358340829391e-09
1.06	0.01984365783139032	0.1097473025317197	0.7725443451387054	0.5904548166532603	-0.4970860534691353	-0.1671853946241746	-0.2566036813665209	0.987278601695761	0.9872786016960303	-0.1740913636050813	-0.1745023467994674	0.4349050475736744	0.0976880653243197	-0.04734355920653931	0.02686753178277132	0.04204791108155628	-0.1139887621836833	0.02059699582730003	-0.09984883824076583	0.09213427824464815	-0.1978792915696523	-0.1978792915696704	0.001729930657410196	-0.0003913340160520562	-0.0593150412982321	-0.01235739337756208	0.002335071767017468	0.03871721247642331	-0.0178693361172895	-0.3763766576671438	-0.01702175398874202	0.009536238045060827	0.05960352242678277	-42.13433822013965	1.601534669984313	1.275511650200643	1.096687817958346	-582.3146561253521	-72.15139985757422	-17.35450843376725	-0.1840227503129168	0.1659375610563894	0.7081184834184078	-2.062110305079983	0.3818411288579541	-1.501002355216507	0.8221665854245809	-3.219613387117898	-3.219613387117839	-0.01670043088062571	0.002878695816349801	-1.315927746057321	-0.4148693351193791	-8.580869729727105e-09	1.58506729862032e-08	5.667519720329783e-08	8.561947688528883e-09	-2.547461775527946e-08	-1.517452731447376e-08	-5.280632152000024e-09
1.07	0.01936017489274511	0.110023934277741	0.7730001400636157	0.5892133586260161	-0.4968607146076385	-0.1682596011472876	-0.2556408348228724	0.9851387997215507	0.9851387997217151	-0.1740739873159209	-0.1745063750301953	0.4342454704561155	0.09754372058089214	-0.04939138557755575	0.02842672510805565	0.04911104559091298	-0.1342276906987825	0.02449027702302157	-0.1149862591985036	0.1004270098368558	-0.2301249968225457	-0.2301249968225734	0.00174045400063873	-0.0004064332032195691	-0.07267701495646303	-0.01654035317036466	0.002186003142140462	0.03946753517592691	-0.01783748769221187	-0.3748451111750254	-0.01882399875118758	0.009485288045954273	0.05952057816278172	-42.72817166736602	1.726725880943355	1.256595009613461	1.774082925458866	-582.3558459396038	-71.96436793278609	-17.45059362623532	-0.2209173302861983	0.1460984307884937	0.705400830803271	-1.993512955022088	0.3959851788483815	-1.519186406372052	0.831623348890823	-3.233631920186641	-3.233631920188077	0.00920151842913045	-0.002509423362948398	-1.357826549879437	-0.4243398644842564	-9.558114686186774e-09	1.996806736155257e-08	6.495609600069308e-08	1.018261480058846e-08	-2.903544675665026e-08	-1.573039996461998e-08	-5.983990299361164e-09
1.08	0.01885506274043145	0.1103151955995201	0.7735265643128409	0.5877717655475589	-0.4965958602213988	-0.169484996768043	-0.2545953015827491	0.9826752241296536	0.9826752241297054	-0.1740566512330335	-0.1745103152922417	0.4334499747271401	0.097356680126912	-0.05166940194017671	0.02979344693434537	0.05617377594455843	-0.154015772425768	0.02850010077551172	-0.1300866577690276	0.1086716175399361	-0.2626340151079028	-0.2626340151079404	0.001721889404047787	-0.000373740285573612	-0.08649876358163229	-0.02089653548811013	0.002036934517227221	0.04021785787542172	-0.01780563926719237	-0.3733135646829139	-0.0206262435136396	0.009434338046828783	0.05943763389875415	-43.32915931715059	1.850089589908788	1.241487619881062	2.451309734684873	-582.5169007381612	-71.78729629287108	-17.56135746240165	-0.2300607486338517	0.1274432612575026	0.7080376522761526	-1.97194094745725	0.4051496402116732	-1.493597877773733	0.8125418075991203	-3.272275993610637	-3.272275993610652	-0.02251801884453643	0.01243711677907118	-1.407882739444931	-0.4495138401079182	-1.074721319540277e-08	2.325911423777983e-08	7.271233884106808e-08	1.184783005674364e-08	-3.204751986370136e-08	-1.613628058807511e-08	-6.819069221845499e-09
